<svg xmlns="http://www.w3.org/2000/svg" width="23" height="16" fill="none"><path fill="#666" d="M.07 4c0-.63.42-.97 1.27-1.01L4.6 3c.22 0 .36.1.44.28.33.91.7 1.7 1.12 2.37.42.66.96 1.43 1.63 2.3a.3.3 0 0 0 .29.16.28.28 0 0 0 .24-.13l.07-.2.02-3.17c0-.22-.06-.36-.19-.44a1.9 1.9 0 0 0-.69-.16c-.26-.04-.4-.17-.4-.4 0-.05.02-.09.03-.11.3-.8 1.18-1.19 2.63-1.19L11 2.29c.56 0 1.02.12 1.38.35.37.23.55.6.55 1.1v4.15a.56.56 0 0 0 .28.09c.22 0 .41-.11.57-.33 1.6-1.88 2.48-3.13 2.6-3.77a.29.29 0 0 1 .05-.09c.1-.18.27-.34.5-.47.24-.14.44-.23.62-.28a.5.5 0 0 1 .2-.04h3.39l.21.02c.3 0 .52.12.68.35a.63.63 0 0 1 .12.24 1.54 1.54 0 0 1 .06.4v.13c-.1.5-.36 1.03-.78 1.6-.41.57-.94 1.18-1.59 1.84-.64.66-1.04 1.09-1.2 1.3-.13.14-.2.28-.2.4 0 .1.06.2.18.33l3.2 3.36a.94.94 0 0 1 .26.64c0 .28-.13.52-.4.7a1.83 1.83 0 0 1-.94.3l-.37.03h-3.33a.8.8 0 0 0-.08 0 .8.8 0 0 1-.1.01c-.31 0-.61-.11-.89-.34a182.96 182.96 0 0 1-2.06-2.16 1.1 1.1 0 0 0-.3-.24 26.3 26.3 0 0 0-.44 1.63l-.07.31c-.14.43-.45.68-.92.77l-.3.02H9.74a5.92 5.92 0 0 1-3.62-1.4 14.53 14.53 0 0 1-3.25-3.59A32.9 32.9 0 0 1 .18 4.52 1.25 1.25 0 0 1 .07 4Zm13.15 4.73a1.66 1.66 0 0 1-.83-.21c-.25-.14-.37-.33-.37-.58v-4.2c0-.25-.07-.42-.22-.52-.14-.1-.4-.16-.77-.16L9.8 3.1c-.63 0-1.1.09-1.42.27.64.26.96.67.96 1.24v3.22c-.03.3-.18.56-.44.76a1.4 1.4 0 0 1-.88.3c-.43 0-.77-.17-1-.53a18.54 18.54 0 0 1-2.54-4.1l-.2-.47-2.9-.02c-.2 0-.3.01-.33.03-.02.02-.03.07-.03.16 0 .1.02.22.04.34l.46 1.03a23.44 23.44 0 0 0 4 6.25c1.44 1.53 2.85 2.29 4.23 2.29h2.2c.08 0 .14-.02.19-.07a.53.53 0 0 0 .1-.24l.05-.19.42-1.6c.11-.22.22-.37.3-.44a.86.86 0 0 1 .57-.2c.35 0 .71.17 1.08.52l1.86 1.98c.11.16.24.24.37.24h3.6c.45 0 .67-.1.67-.28a.31.31 0 0 0-.07-.18l-3.17-3.3a1.17 1.17 0 0 1-.38-.83c0-.3.12-.58.35-.84A18 18 0 0 1 19 7.22a28.2 28.2 0 0 0 1.43-1.6c.41-.48.68-.93.81-1.34l.07-.23a.24.24 0 0 1-.02-.12c0-.06-.01-.1-.03-.14h-3.43a1.2 1.2 0 0 0-.53.33l-.13.35c-.36.84-1.32 2.14-2.86 3.9a1.67 1.67 0 0 1-1.08.36Z"/></svg>