<svg xmlns="http://www.w3.org/2000/svg" width="20" height="21" fill="none"><g fill="#000" clip-path="url(#a)"><path d="M17.9 9.75H9.4v1.2h8.5l-2.1 2.11.9.9 3.1-3.1a.75.75 0 0 0 0-.9l-3.1-3.12-.9.9 2.1 2.01ZM8.1 19.8v-6.22a.65.65 0 0 0-.6-.6H3.1a1.23 1.23 0 0 0 1.2 1.2h2.5v5.01H3.1a1.78 1.78 0 0 1-1.73-1.02 1.8 1.8 0 0 1-.17-.68V3.43a1.78 1.78 0 0 1 .48-1.25 1.77 1.77 0 0 1 1.22-.56h3.9v5.02H4.4a1.22 1.22 0 0 0-1.2 1.2h4.4a.65.65 0 0 0 .6-.6V.92a.86.86 0 0 0-.7-.6H3.1a2.99 2.99 0 0 0-2.15.81A3.01 3.01 0 0 0 0 3.23v13.95a2.91 2.91 0 0 0 .77 2.19 2.89 2.89 0 0 0 2.13.92h4.6a.5.5 0 0 0 .6-.5Z"/></g><defs><clipPath id="a"><path fill="#fff" d="M0 .32h20v20.07H0z"/></clipPath></defs></svg>