<svg xmlns="http://www.w3.org/2000/svg">
  <symbol viewBox="0 0 23 16" id="vk">
    <path
      d="M.07 3.993c0-.622.423-.958 1.27-1.006l3.26.018c.22 0 .365.091.438.274.336.915.711 1.704 1.127 2.369.416.664.96 1.43 1.63 2.295.059.11.154.165.285.165a.276.276 0 0 0 .24-.128l.067-.202.021-3.164c0-.22-.062-.365-.186-.439-.124-.073-.353-.128-.689-.164-.263-.037-.394-.17-.394-.403 0-.048.007-.085.022-.11.306-.792 1.182-1.188 2.626-1.188l1.226-.018c.554 0 1.014.115 1.379.347.364.232.547.598.547 1.097v4.152a.562.562 0 0 0 .284.092c.22 0 .409-.11.57-.33 1.604-1.877 2.472-3.133 2.604-3.767a.29.29 0 0 1 .044-.092c.102-.183.27-.341.503-.475.233-.134.438-.226.613-.275a.507.507 0 0 1 .197-.036h3.392l.219.018c.292 0 .518.116.678.348a.63.63 0 0 1 .12.237c.022.086.037.171.044.257.008.085.011.134.011.146v.128c-.102.5-.36 1.033-.777 1.6-.415.567-.944 1.18-1.586 1.838-.642.659-1.044 1.092-1.204 1.299-.131.146-.197.28-.197.402 0 .098.058.207.175.33l3.195 3.365a.94.94 0 0 1 .263.64c0 .28-.131.512-.394.695a1.826 1.826 0 0 1-.941.31l-.372.019h-3.327a.794.794 0 0 0-.087.01.802.802 0 0 1-.088.008c-.32 0-.62-.116-.897-.347a182.96 182.96 0 0 1-2.057-2.158 1.106 1.106 0 0 0-.307-.238c-.058.195-.135.475-.23.841-.094.366-.164.628-.207.787l-.066.31c-.146.427-.452.683-.92.769l-.306.018H9.743c-1.21 0-2.418-.463-3.622-1.39-1.203-.927-2.287-2.125-3.25-3.594-.963-1.47-1.86-3.18-2.691-5.13a1.254 1.254 0 0 1-.11-.53Zm13.153 4.736a1.66 1.66 0 0 1-.831-.21c-.248-.14-.372-.332-.372-.576V3.736c0-.243-.073-.417-.22-.52-.145-.104-.4-.156-.765-.156l-1.248.036c-.627 0-1.101.092-1.422.275.642.256.963.67.963 1.243v3.22c-.03.304-.175.557-.438.758a1.405 1.405 0 0 1-.875.302c-.438 0-.774-.177-1.007-.53-1.138-1.44-1.984-2.805-2.539-4.097l-.197-.476-2.91-.018c-.19 0-.296.01-.318.027-.022.019-.033.07-.033.156 0 .11.015.226.044.347l.46 1.025c1.225 2.646 2.556 4.73 3.994 6.255 1.437 1.524 2.848 2.286 4.234 2.286h2.189c.088 0 .153-.021.197-.064.044-.043.08-.125.11-.247l.043-.183.416-1.61c.117-.219.219-.365.306-.438a.86.86 0 0 1 .57-.202c.35 0 .707.177 1.072.53l1.86 1.976c.117.159.24.238.372.238h3.611c.438 0 .657-.092.657-.274a.312.312 0 0 0-.066-.183l-3.173-3.31c-.248-.257-.372-.531-.372-.824 0-.292.116-.573.35-.841.19-.244.558-.65 1.105-1.216a28.203 28.203 0 0 0 1.434-1.592c.408-.493.678-.941.81-1.344l.065-.238a.243.243 0 0 1-.022-.118c0-.055-.007-.101-.022-.138H17.82a1.199 1.199 0 0 0-.525.33l-.131.347c-.365.841-1.32 2.14-2.867 3.896a1.672 1.672 0 0 1-1.073.365Z"
      fill="currentColor"></path>
  </symbol>
  <symbol viewBox="0 0 16 16" id="insta">
    <path
      d="M7.98.06c1.34 0 2.43.02 3.27.05a6 6 0 0 1 1.92.37 3.99 3.99 0 0 1 2.31 2.32 6 6 0 0 1 .38 1.92 91.88 91.88 0 0 1 0 6.53 6 6 0 0 1-.38 1.92 3.99 3.99 0 0 1-2.3 2.31 6 6 0 0 1-1.93.38 91.88 91.88 0 0 1-6.53 0 6 6 0 0 1-1.92-.38 3.99 3.99 0 0 1-2.32-2.3 6 6 0 0 1-.37-1.93 91.73 91.73 0 0 1 0-6.53A6 6 0 0 1 .48 2.8 3.99 3.99 0 0 1 2.8.48 6 6 0 0 1 4.72.11C5.56.08 6.65.06 7.98.06Zm0 1.03c-1.38 0-2.51.02-3.39.05-.56.02-1.08.12-1.56.3-.75.31-1.28.84-1.6 1.6-.17.47-.27 1-.29 1.55a98.83 98.83 0 0 0 0 6.79c.02.56.12 1.08.3 1.56.31.75.84 1.28 1.6 1.6.47.17 1 .27 1.55.29a98.66 98.66 0 0 0 6.79 0 5.01 5.01 0 0 0 1.56-.3 2.85 2.85 0 0 0 1.6-1.6c.17-.47.27-1 .29-1.55a98.66 98.66 0 0 0 0-6.79 5.01 5.01 0 0 0-.3-1.56 2.85 2.85 0 0 0-1.6-1.6c-.47-.17-1-.27-1.55-.29-.88-.03-2.01-.05-3.4-.05Zm0 10.07c.88 0 1.63-.31 2.25-.93.62-.62.93-1.37.93-2.25 0-.87-.31-1.62-.93-2.24a3.06 3.06 0 0 0-2.25-.93c-.87 0-1.62.31-2.24.93a3.06 3.06 0 0 0-.93 2.24c0 .88.31 1.63.93 2.25.62.62 1.37.93 2.24.93Zm0-7.24c1.13 0 2.09.4 2.88 1.19.8.8 1.19 1.75 1.19 2.87 0 1.13-.4 2.09-1.2 2.88-.78.8-1.74 1.19-2.87 1.19-1.12 0-2.08-.4-2.87-1.2a3.92 3.92 0 0 1-1.19-2.87c0-1.12.4-2.08 1.19-2.87.8-.8 1.75-1.19 2.87-1.19Zm5.2-.15a.95.95 0 0 1-.97.94.9.9 0 0 1-.67-.28.9.9 0 0 1-.27-.66.95.95 0 0 1 .93-.97c.26 0 .49.1.68.29.2.19.3.42.3.68Z"
      fill="currentColor"></path>
  </symbol>
  <symbol viewBox="0 0 22 22" id="facebooke">
    <path
      d="M16.5 1.83h-2.75c-1.22 0-2.38.48-3.24 1.32a4.45 4.45 0 0 0-1.34 3.18v2.7H6.42v3.59h2.75v7.19h3.66v-7.2h2.75l.92-3.59h-3.67v-2.7c0-.23.1-.46.27-.63.17-.17.4-.26.65-.26h2.75v-3.6Z"
      stroke="currentColor" stroke-width="1.1" stroke-linecap="round" stroke-linejoin="round"></path>
  </symbol>
  <symbol viewBox="0 0 27 34" id="logo-footer">
    <path fill="currentColor"
      d="M 13.64 0.02 L 13.5 0 L 0 1.4 v 24.61 L 13.5 34 L 27 26.01 V 1.41 L 13.64 0 Z m 11.6 25 L 13.5 31.96 L 1.77 25.02 v -10.1 l 11.68 6.93 l 0.02 1.25 l -8.02 -4.75 v 1.23 l 8.04 4.8 l 0.02 1.3 l -8.05 -4.76 v 1.22 l 8.04 4.81 l 8.12 -4.83 V 16.9 l 3.62 -2.15 v 10.26 Z m 0 -11.57 L 22 15.33 l -1.48 0.88 l -7.06 -4.19 l -0.01 1.23 l 6.04 3.57 l -0.06 0.03 l -0.13 0.07 l -0.86 0.5 l -4.98 -2.95 l -0.01 1.22 l 3.93 2.33 l -0.93 0.61 l -0.02 0.01 l -2.97 -1.74 l -0.01 1.23 l 1.94 1.13 l -1.98 1.19 L 1.8 13.58 l 11.63 -6.96 l 11.8 6.83 Z m 0 -1.22 L 13.43 5.3 L 1.77 12.22 V 2.99 L 13.5 1.76 L 25.23 3 v 9.24 Z">
    </path>
  </symbol>
  <symbol id="mail">
    <path stroke="currentColor" stroke-width="1.3"
      d="M1.65 5.85v8M18.65 5.85v8M1 13.2h18M1 1.2h18M18.35 3.03 10 9.53l-8.35-6.5V1.5h16.7v1.53Z"></path>
  </symbol>
  <symbol id="tel">
    <g>
      <g clip-path="url(#a)" fill="currentColor">
        <path
          d="M17.9 9.753H9.4v1.204h8.5l-2.1 2.107.9.903 3.1-3.11a.754.754 0 0 0 0-.904l-3.1-3.11-.9.903 2.1 2.007ZM8.1 19.787v-6.221a.653.653 0 0 0-.6-.602H3.1a1.226 1.226 0 0 0 1.2 1.204h2.5v5.017H3.1a1.784 1.784 0 0 1-1.728-1.02 1.801 1.801 0 0 1-.172-.686V3.431a1.78 1.78 0 0 1 .483-1.25A1.767 1.767 0 0 1 2.9 1.624h3.9v5.017H4.4a1.218 1.218 0 0 0-1.2 1.204h4.4a.649.649 0 0 0 .6-.602V.923A.863.863 0 0 0 7.5.32H3.1a2.99 2.99 0 0 0-2.151.81A3.01 3.01 0 0 0 0 3.23v13.948a2.91 2.91 0 0 0 .772 2.192 2.89 2.89 0 0 0 2.128.919h4.6a.499.499 0 0 0 .6-.502Z">
        </path>
      </g>
      <defs>
        <clipPath id="a">
          <path fill="currentColor" transform="translate(0 .32)" d="M0 0h20v20.069H0z"></path>
        </clipPath>
      </defs>
    </g>
  </symbol>
</svg>